<svg xmlns="http://www.w3.org/2000/svg" width="99" height="99" viewBox="0 0 99 99">
  <g>
    <path d="M98.8235294,49.4858824 C98.8211765,48.7772706 98.8048235,48.0724706 98.7730588,47.3710588 L98.7730588,7.38164706 L87.7176471,18.4370588 C78.6694118,7.36164706 64.9047059,0.287647059 49.4870588,0.287647059 C33.4423529,0.287647059 19.1882353,7.94611765 10.1776471,19.8064706 L28.2988235,38.1182353 C30.0747059,34.8338824 32.5975294,32.0129412 35.6394118,29.8823529 C38.8030588,27.4135294 43.2856471,25.3949412 49.4864706,25.3949412 C50.2355765,25.3949412 50.8137647,25.4824706 51.2385882,25.6473882 C58.9214118,26.2537765 65.5809412,30.4937412 69.5021176,36.6477412 L56.6750588,49.4748 C72.9221176,49.4110353 91.2762353,49.3736235 98.8221176,49.4830353"/>
    <path d="M49.1988235,0.289411765 C48.4902118,0.291764706 47.7854118,0.308117647 47.084,0.339882353 L7.09458824,0.339882353 L18.15,11.3952941 C7.07458824,20.4435294 0.000588235294,34.2082353 0.000588235294,49.6258824 C0.000588235294,65.6705882 7.65917647,79.9247059 19.5194118,88.9352941 L37.8311765,70.8141176 C34.5468235,69.0382353 31.7258824,66.5154118 29.5952941,63.4735294 C27.1265882,60.3098824 25.1078824,55.8272941 25.1078824,49.6264706 C25.1078824,48.8773647 25.1954118,48.2991765 25.3603294,47.8743529 C25.9667176,40.1915294 30.2066824,33.532 36.3606824,29.6108235 L49.1877412,42.4378824 C49.1239765,26.1908235 49.0864471,7.83670588 49.1959765,0.290823529"/>
    <path d="M0.00235294118,49.6247059 C0.00470588235,50.3333176 0.0210588235,51.0381176 0.0528235294,51.7395294 L0.0528235294,91.7289412 L11.1082353,80.6735294 C20.1564706,91.7489412 33.9211765,98.8229412 49.3388235,98.8229412 C65.3835294,98.8229412 79.6376471,91.1644706 88.6482353,79.3041176 L70.5270588,60.9923529 C68.7511765,64.2767059 66.2283529,67.0976471 63.1864706,69.2282353 C60.0228235,71.6970588 55.5402353,73.7156471 49.3394118,73.7156471 C48.5903059,73.7156471 48.0121176,73.6281176 47.5872941,73.4632 C39.9044706,72.8568118 33.2449412,68.6168471 29.3237647,62.4628471 L42.1508235,49.6357882 C25.9037647,49.6995529 7.54964706,49.7369647 0.00376470588,49.6275529"/>
  </g>
</svg>
